<?xml version="1.0" standalone="no"?>
<!DOCTYPE svg PUBLIC "-//W3C//DTD SVG 1.1//EN" "http://www.w3.org/Graphics/SVG/1.1/DTD/svg11.dtd" >
<svg xmlns="http://www.w3.org/2000/svg">
<metadata>
Created by FontForge 20120731 at Thu Apr 27 06:38:53 2017
 By admin
</metadata>
<defs>
<font id="kfont" horiz-adv-x="1024" >
  <font-face 
    font-family="kfont"
    font-weight="500"
    font-stretch="normal"
    units-per-em="1024"
    panose-1="2 0 6 3 0 0 0 0 0 0"
    ascent="896"
    descent="-128"
    x-height="792"
    bbox="0 -212.308 1344 913.625"
    underline-thickness="0"
    underline-position="0"
    unicode-range="U+0078-E90B"
  />
<missing-glyph 
 />
    <glyph glyph-name=".notdef" 
 />
    <glyph glyph-name=".notdef" 
 />
    <glyph glyph-name=".null" horiz-adv-x="0" 
 />
    <glyph glyph-name="nonmarkingreturn" horiz-adv-x="341" 
 />
    <glyph glyph-name="x" unicode="x" horiz-adv-x="1001" 
d="M281 543q-27 -1 -53 -1h-83q-18 0 -36.5 -6t-32.5 -18.5t-23 -32t-9 -45.5v-76h912v41q0 16 -0.5 30t-0.5 18q0 13 -5 29t-17 29.5t-31.5 22.5t-49.5 9h-133v-97h-438v97zM955 310v-52q0 -23 0.5 -52t0.5 -58t-10.5 -47.5t-26 -30t-33 -16t-31.5 -4.5q-14 -1 -29.5 -0.5
t-29.5 0.5h-32l-45 128h-439l-44 -128h-29h-34q-20 0 -45 1q-25 0 -41 9.5t-25.5 23t-13.5 29.5t-4 30v167h911zM163 247q-12 0 -21 -8.5t-9 -21.5t9 -21.5t21 -8.5q13 0 22 8.5t9 21.5t-9 21.5t-22 8.5zM316 123q-8 -26 -14 -48q-5 -19 -10.5 -37t-7.5 -25t-3 -15t1 -14.5
t9.5 -10.5t21.5 -4h37h67h81h80h64h36q23 0 34 12t2 38q-5 13 -9.5 30.5t-9.5 34.5q-5 19 -11 39h-368zM336 498v228q0 11 2.5 23t10 21.5t20.5 15.5t34 6h188q31 0 51.5 -14.5t20.5 -52.5v-227h-327z" />
    <glyph glyph-name="home" unicode="&#xe717;" 
d="M512 715l-469 -469l31 -31l97 96v-438h682v439l97 -97l31 31zM597 -84h-170v299h170v-299zM811 -84h-171v341h-256v-341h-171v438l299 299l299 -299v-438z" />
    <glyph glyph-name="icon2" unicode="&#xe603;" 
d="M758 791h-485q-20 0 -34.5 -14.5t-14.5 -35.5v-885q0 -20 14.5 -34.5t34.5 -14.5h485q20 0 34.5 14.5t14.5 34.5v885q0 21 -14.5 35.5t-34.5 14.5zM771 -144q0 -5 -4 -9t-9 -4h-485q-5 0 -8.5 4t-3.5 9v170h510v-170zM771 62h-510v582h510v-582zM771 681h-510v60
q0 6 3.5 9.5t8.5 3.5h485q5 0 9 -3.5t4 -9.5v-60zM443 -47h145v-37h-145v37z" />
    <glyph glyph-name="weixin" unicode="&#xe631;" 
d="M509.5 -51q-145.5 0 -249 103t-103.5 249t103.5 249t249 103t249 -103t103.5 -249t-103.5 -249t-249 -103zM509.5 641q-92.5 0 -170.5 -45.5t-124 -124t-46 -170.5t46 -170.5t124 -124t170.5 -45.5t170.5 45.5t123.5 124t45.5 170.5t-45.5 170.5t-123.5 124t-170.5 45.5z
M513.5 -51q-71.5 0 -137.5 27q-63 27 -112 76t-76 112q-28 66 -28 138t28 137q27 64 76 113t112 75q66 28 137.5 28t137.5 -28q64 -26 112.5 -75t75.5 -113q28 -65 28 -137t-28 -138q-27 -63 -75.5 -112t-112.5 -76q-66 -27 -137.5 -27zM513.5 635q-90.5 0 -167 -44.5
t-121 -121.5t-44.5 -167t44.5 -167t121 -121.5t167 -44.5t167 44.5t121.5 121.5t45 167t-45 167t-121.5 121.5t-167 44.5zM695 151q8 -36 11 -41q-28 13 -46 24q-24 -7 -49 -7q-57 0 -97.5 34.5t-40.5 83.5t40.5 84t98 35t98 -35t40.5 -84q0 -59 -55 -94zM562.5 303
q-7.5 0 -13 -5t-5.5 -11.5t5.5 -11.5t13 -5t13 5t5.5 11.5t-5.5 11.5t-13 5zM657.5 298q-7.5 0 -13 -4.5t-5.5 -11.5t5.5 -11.5t13 -4.5t13 4.5t5.5 11.5t-5.5 11.5t-13 4.5zM465 250q0 -21 9 -40q-10 -1 -19 -1q-30 0 -59 9l-55 -30q3 7 14 50q-62 42 -62 109
q0 58 47.5 98.5t114.5 40.5q61 0 106.5 -34t54.5 -84q-7 1 -12 1q-58 0 -98.5 -35t-40.5 -84zM400.5 415q-8.5 0 -15 -6t-6.5 -13.5t6.5 -13.5t15 -6t15 6t6.5 13.5t-6.5 13.5t-15 6zM512 412q-9 0 -15 -5.5t-6 -13.5t6 -13.5t15 -5.5t15.5 5.5t6.5 13.5t-6.5 13.5
t-15.5 5.5z" />
    <glyph glyph-name="user" unicode="&#xe642;" 
d="M967 84q-17 11 -48.5 27.5t-113 47t-156.5 43.5l-1 5q-1 23 2 40q4 18 18 37q40 58 58 179q4 31 4 60q0 25 -3 47q-10 68 -43 111.5t-98 70.5q-20 8 -58 8l-12 -1l-11 1q-38 0 -58 -9q-60 -25 -91 -69.5t-41 -117.5q-3 -21 -3 -45q0 -27 4 -56q8 -62 19.5 -103t35.5 -76
q13 -18 18 -39q3 -17 2 -38l-1 -3q-48 -7 -98.5 -22t-86 -29.5t-70 -31t-47 -23.5t-19.5 -11l-12 -8v-185l24 -1q357 -8 438 -8q235 0 435 5h25v187zM928 -59q-234 -4 -409 -4q-181 0 -411 7v106q156 87 308 106q20 3 22 22h2l2 26q2 28 -3 52q-7 31 -26 57q-19 29 -29 65.5
t-17 91.5q-4 25 -4 49q0 21 3 39q8 59 31 92.5t70 53.5q10 5 37 4h12h13q27 1 37 -3q48 -20 75 -51.5t35 -90.5q3 -19 3 -40q0 -26 -4 -52q-16 -109 -50 -158q-19 -28 -25 -55q-4 -22 -3 -55l1 -13q-2 -5 -2 -7q-1 -10 5.5 -18.5t16.5 -10.5q153 -19 310 -107v-106v0z" />
    <glyph glyph-name="mac" unicode="&#xe6be;" 
d="M900 77q-28 -64 -58 -109q-17 -26 -31.5 -45t-35 -40t-43.5 -32.5t-47 -11.5q-26 0 -68 19t-84.5 18.5t-85 -19.5t-69.5 -18q-45 0 -81.5 34t-72.5 88q-52 78 -75 164.5t-16.5 160.5t39.5 125q34 52 85 82t103 30q36 0 90 -19t82 -19q24 0 75.5 19.5t94.5 19.5
q47 0 92.5 -24t79.5 -67q-54 -30 -80 -82.5t-21 -105t38.5 -100t88.5 -68.5v0zM641 588q55 70 44 145q-36 -3 -74 -23.5t-63 -50.5t-38 -67.5t-7 -73.5q38 -1 76 18.5t62 51.5v0z" />
    <glyph glyph-name="user1" unicode="&#xe60b;" 
d="M512 689q-104 0 -192 -52t-139 -141.5t-51 -195.5t51 -195.5t139 -141.5t192 -52t192 52t139 141.5t51 195.5t-51 195.5t-139 141.5t-192 52zM306 10q25 11 45 20q18 7 39 19q18 11 32.5 17.5t17.5 21.5v2q13 1 21 11q13 15 6 60q-2 18 -19 24q-12 8 -12 42q-1 16 -13 25
q-6 3 -12 4v2q0 10 -5 28q-2 7 -2 10l1 1q20 13 12 36l-13 36q-5 28 -4 58t9 39q1 2 3 2q3 0 7.5 -1.5t8.5 -1.5q16 0 26 14q5 9 4 19q22 8 54 8q13 0 26.5 -2t30 -8t28 -19.5t13.5 -34.5q10 -66 1 -110q-4 -15 7 -27q5 -5 11 -7q-1 -10 -6 -24q0 -1 -1 -2q-1 -7 -5 -14
q-7 -1 -13 -5q-15 -9 -14 -27q0 -11 -2 -24t-5 -15q-9 -4 -15 -12.5t-5 -18.5v-2v-4.5t0.5 -5.5t0.5 -6.5t0.5 -6t0.5 -5v-2.5q0 -12 7.5 -20.5t18.5 -9.5l1 -1q2 -19 16 -28q40 -27 84 -38q18 -5 35 -10q-95 -75 -215 -75q-114 0 -206 68zM754 41q-28 9 -54 16
q-18 4 -37 12.5t-28.5 14.5l-9.5 6q-2 2 -2.5 9t0.5 14l1 6l-29 5q0 2 -2 34q14 4 20.5 21.5t6.5 32.5v16q3 -2 6 -2q7 0 13.5 9.5t9.5 19.5l3 9q6 17 7 29t-0.5 18t-5 9.5t-6.5 4.5t-5 1h-1v0q4 22 4 52t-2 49l-2 20q-6 47 -43 68.5t-86 21.5q-59 0 -82 -21q-10 -10 -2 -20
q-8 2 -16 2q-17 0 -27.5 -14t-13 -34t-2 -40t2.5 -34l2 -15l14 -39q-12 -8 -14 -17.5t2 -25t5 -23.5q1 -30 19 -30l5 1q1 -18 4 -31.5t8 -20.5t9.5 -11.5t7.5 -6.5l3 -1q2 -15 2.5 -23.5t-0.5 -10l-1 -1.5h-1h-25l-2 -27q-16 -7 -35.5 -18t-35.5 -18q-26 -12 -60 -26
q-56 51 -87 120.5t-31 147.5q0 97 47 179.5t128 130.5t176 48t176 -48t128 -130.5t47 -179.5q0 -75 -29 -142t-80 -117z" />
    <glyph glyph-name="linux" unicode="&#xe726;" 
d="M379 577q-6 0 -9 -5.5t-5 -5.5q-3 -1 -3 3q0 6 11 8h6zM429 569q-3 0 -7 4t-10 2q14 7 18 -1q2 -3 -1 -5zM228 325q-2 1 -3.5 -1.5t-2.5 -7t-3 -7.5t-6 -8t0 -7q2 0 7 4.5t7 10.5q0 1 1 3.5t1.5 3.5t0.5 2.5v2.5v2v1l-2 1v0zM717 120q0 10 -32 24q2 9 4 16t3 14.5t2 12.5
t0.5 13t-0.5 11t-2 12.5t-2.5 11.5t-3 14.5t-3.5 15.5q-5 27 -26.5 58.5t-41.5 42.5q14 -11 33 -47q50 -93 31 -159q-6 -23 -29 -24q-17 -2 -21.5 11t-5 47.5t-6.5 61.5q-5 22 -11 39t-11 26t-9 14t-7.5 8.5t-4.5 3.5q-8 36 -17.5 59.5t-16.5 32t-13.5 18.5t-8.5 23
q-3 12 3 30.5t3 28.5t-26 14q-8 2 -25 10.5t-20 9.5q-5 0 -6.5 14.5t4.5 29t20 15.5q22 2 30 -17t2 -33q-6 -11 -1 -15.5t17 -0.5q7 3 7 21v21q-3 17 -7.5 28.5t-12 17.5t-13.5 8.5t-15 4.5q-61 -5 -51 -77q0 -8 -1 -8q-5 5 -16.5 6t-19 -0.5t-8.5 2.5q0 33 -9.5 52
t-25.5 19q-16 1 -24 -15.5t-9 -34.5q-1 -8 1.5 -20.5t7.5 -21.5t9 -8q6 2 9 8q2 5 -4 5q-4 0 -9 8t-5 19q-1 13 5 21.5t20 7.5q9 0 15 -12t5.5 -22t-0.5 -13q-13 -8 -18 -16q-5 -7 -16 -13.5t-12 -7.5q-7 -8 -8.5 -15.5t4.5 -9.5q8 -5 14 -11.5t9 -11t11 -7.5t20 -4
q27 -1 58 9q2 1 14 4t19.5 6t16.5 7.5t12 9.5q5 8 12 5q2 -2 3 -5t-1.5 -6.5t-9.5 -5.5q-11 -4 -32 -12.5t-26 -11.5q-25 -11 -40 -13q-14 -3 -45 1q-6 1 -5.5 -1t9.5 -11q15 -13 39 -12q9 0 20 3.5t20.5 8t19 10t17.5 10t14 7t10 1.5t5 -7q0 -1 -0.5 -2.5t-2.5 -2.5
t-3.5 -2.5t-5 -3t-5.5 -2.5t-5.5 -3t-5.5 -2q-16 -8 -38.5 -25.5t-38 -24.5t-27.5 -1q-12 7 -36 42q-13 18 -15 13v-6q0 -14 -8.5 -32t-17 -32t-12 -33.5t6.5 -35.5q-13 -4 -35.5 -52t-27.5 -80q-1 -10 -0.5 -39.5t-3.5 -33.5q-4 -14 -16 -2q-19 18 -21 54q-1 16 2 32
q3 11 0 10l-2 -3q-21 -37 5 -95q3 -7 14.5 -16t13.5 -11q12 -13 60 -51.5t53 -44.5q9 -8 10 -21t-8 -24.5t-26 -13.5q4 -9 16 -25.5t16 -30.5t4 -41q27 14 4 53q-2 5 -5.5 9.5t-5.5 6.5t-1 3q1 3 7 5.5t12 -1.5q26 -29 94 -20q76 8 102 50q13 21 19 17q7 -4 6 -30
q-1 -14 -13 -53q-6 -13 -4 -21t14 -9q2 11 8.5 44t7.5 52q1 12 -4 42t-4 55t13 40q9 11 29 11q1 21 20 30t41.5 6t34.5 -13v0zM358 593q1 9 -2 16.5t-6 8.5q-5 1 -5 -4q1 -3 2 -3q6 0 4 -9q-1 -11 5 -11q2 0 2 2v0zM597 480q-1 5 -3.5 7t-7.5 2.5t-8 3.5q-3 1 -5.5 4t-4 4.5
t-3.5 4t-2.5 2.5t-1.5 -1q-8 -9 4 -25t22 -18q5 0 8 5t2 11v0zM495 602q0 6 -2.5 11t-6 7t-5.5 2q-8 -1 -4 -4l2 -1q8 -3 11 -18q0 -2 4 1zM526 735q0 1 -1.5 2.5t-5 4t-5.5 3.5q-8 9 -13 9q-6 -1 -7 -4.5t-0.5 -7.5t-0.5 -7q0 -2 -3 -6t-3.5 -5.5t1.5 -4.5q2 -2 4.5 0
t6.5 5t8 5q1 1 5.5 1t8.5 1t5 4v0zM849 -31q12 -7 18 -14.5t6.5 -14t-1.5 -12.5t-8.5 -12.5t-13.5 -11.5t-17.5 -10.5t-18 -9t-18 -9t-15.5 -7.5q-22 -11 -49 -32t-43 -37q-10 -9 -39 -11t-51 9q-10 5 -16.5 13t-9.5 14.5t-12.5 11.5t-26.5 5q-25 1 -75 1q-10 0 -32 -1
t-33 -2q-25 0 -45.5 -8t-31 -17t-25 -16.5t-30.5 -6.5t-63 18t-84 24q-10 3 -28.5 6t-29 5t-22.5 5.5t-19 8t-10 11.5q-5 13 4.5 37.5t10.5 31.5q0 9 -3 22.5t-5.5 24t-2.5 21t6 15.5q8 7 32.5 8t34.5 7q17 10 24 20t7 29q12 -42 -19 -60q-18 -12 -47 -9q-19 2 -25 -6
q-7 -8 3 -32q1 -4 4.5 -10.5t5 -10t2.5 -10t1 -12.5q0 -9 -10 -28.5t-8 -27.5q2 -9 21 -14q12 -4 48.5 -11t56.5 -12q14 -3 42.5 -12t47 -13t32.5 -3q24 4 36.5 16.5t13 27.5t-4.5 33.5t-10.5 29.5t-11.5 21q-69 108 -97 138q-38 42 -64 23q-7 -5 -9 8q-1 10 -1 22
q1 17 6 30t13.5 26.5t12.5 24.5q5 12 15.5 41t16.5 44.5t17 35t23 30.5q62 82 70 112q-7 64 -9 177q-1 51 14 86t60 60q23 12 60 12q30 1 60.5 -7.5t50.5 -23.5q33 -24 52.5 -69.5t16.5 -84.5q-2 -54 18 -122q19 -65 76 -125q31 -34 56.5 -93.5t33.5 -108.5q5 -28 3.5 -48.5
t-7 -32t-11.5 -12.5t-13.5 -10.5t-15.5 -20.5t-23 -19.5t-35 -7.5q-10 0 -18 2.5t-13 8t-7.5 9t-6.5 11.5t-5 11q-13 21 -23.5 17t-16 -28t3.5 -55q12 -40 1 -112q-6 -37 10 -57t42 -18.5t49 19.5q33 28 50.5 38t59.5 25q30 10 43.5 20.5t10.5 19.5t-14 16.5t-29 13.5
q-19 6 -28.5 27.5t-8.5 41.5t9 27q0 -18 4 -32.5t8.5 -23t12 -16t12 -11t12 -7.5t9.5 -5v0z" />
    <glyph glyph-name="windows" unicode="&#xe801;" 
d="M426 237v-372l-389 54v318h389zM426 662v-377h-389v323zM987 237v-449l-518 71v378h518zM987 739v-454h-518v382z" />
    <glyph glyph-name="msnui-logo-mac" unicode="&#xe701;" 
d="M900 174q-28 -64 -58 -109q-17 -26 -31.5 -45t-35 -40t-43.5 -32.5t-47 -11.5q-26 0 -68 19t-84.5 18.5t-85 -19t-69.5 -18.5q-45 0 -81.5 34t-72.5 88q-52 78 -75 165t-16.5 160.5t39.5 124.5q34 52 85 82.5t103 30.5q36 0 90 -19.5t82 -19.5q24 0 75.5 19.5t94.5 19.5
q47 0 92.5 -24t79.5 -67q-54 -30 -80 -82.5t-21 -105t38.5 -100t88.5 -68.5v0zM641 685q55 70 44 145q-36 -2 -74 -23t-63 -51t-38 -67.5t-7 -73.5q38 -1 76 18.5t62 51.5v0z" />
    <glyph glyph-name="import" unicode="&#xe609;" 
d="M371 476q0 67 -35.5 111t-87.5 73.5t-112 49.5q-61 19 -112 39q-8 2 -8 10q0 12 12 12q182 0 292 -21t167.5 -59t76.5 -93t19 -122h143l-249 -313l-249 313h143zM1008 645v-816h-872v487l82 -104v-298h708v649h-163v82h245z" />
    <glyph glyph-name="icon" unicode="&#xe604;" 
d="M919 41q-34 89 -100.5 157t-153.5 102q43 35 67.5 86.5t24.5 109.5q0 104 -72 178t-173.5 74t-173 -74t-71.5 -178q0 -58 24.5 -109t67.5 -87q-88 -33 -154 -101t-100 -158l-2 -5v-99q0 -34 24 -58.5t58 -24.5h654q34 0 58 24.5t24 58.5v99zM321 496q0 81 56 138.5
t135 57.5t135 -57.5t56 -138.5t-56 -138t-135 -57t-135 57t-56 138zM866 -63q0 -11 -8 -19t-19 -8h-654q-11 0 -19 8t-8 19v89q34 89 104 151.5t161 84.5q43 -17 89 -17t89 17q89 -22 160 -85t105 -151v-89z" />
    <glyph glyph-name="weixin1" unicode="&#xe64d;" 
d="M897 -25l27 -90l-99 54q-73 -18 -109 -18q-129 0 -218.5 76.5t-89.5 185t89.5 185.5t218.5 77q81 0 151.5 -35t113.5 -96t43 -131q0 -113 -127 -208zM616 300q-13 0 -24.5 -11.5t-11.5 -25t11.5 -24.5t24.5 -11q20 0 33 11t13 25t-13 25t-33 11zM816 300q-14 0 -25 -11.5
t-11 -25t11 -24.5t25 -11q19 0 32 11t13 25t-13 25t-32 11zM385 178q0 -37 11 -75q-18 -2 -34 -2q-13 0 -25 1t-27 3.5t-22.5 3.5t-27 5t-25.5 6l-126 -64l36 109q-145 101 -145 243q0 85 49 155.5t132 111t181 40.5q134 0 238.5 -72t127.5 -181q-19 2 -35 2
q-129 0 -218.5 -83.5t-89.5 -202.5zM245 562q-22 0 -38.5 -13t-16.5 -32.5t16.5 -32t38.5 -12.5q20 0 32.5 12t12.5 32.5t-12.5 33t-32.5 12.5zM498 562q-21 0 -37.5 -13t-16.5 -32.5t16.5 -32t37.5 -12.5t33.5 12t12.5 32.5t-12.5 33t-33.5 12.5z" />
    <glyph glyph-name="tel1" unicode="&#xe613;" 
d="M117 792v0v0zM915 89q0 -15 -5.5 -40t-11.5 -39q-12 -28 -70 -60q-53 -29 -105 -29q-15 0 -29.5 2t-33 7t-27 8.5t-31.5 12t-28 9.5q-55 20 -99 47q-72 45 -149.5 122.5t-122.5 149.5q-27 44 -47 100q-2 5 -10.5 27.5t-11.5 31.5t-8 27t-7 32.5t-2 29.5q0 52 29 106
q32 57 60 69q14 6 38.5 11.5t40.5 5.5q8 0 12 -1q10 -4 30 -43q6 -11 16.5 -31t20 -36t17.5 -30q2 -3 10 -14.5t12 -20t4 -16.5q0 -11 -16 -28t-35 -31t-35 -30t-16 -26q0 -5 2.5 -13t4.5 -12t8 -13.5t7 -10.5q43 -78 98.5 -133.5t133.5 -98.5q1 -1 10.5 -7t13.5 -8
t11.5 -4.5t12.5 -2.5q11 0 26.5 16t30 35t31.5 35t28 16q8 0 16 -4t20 -12t14 -10q15 -8 31 -17t36 -20t30 -17q40 -20 43 -30q2 -4 2 -12v0z" />
    <glyph glyph-name="tel" unicode="&#xe619;" 
d="M789 -157q-37 -6 -83 6q-244 57 -405 215t-219 397l-1 1v7q-8 34 -9 92q-1 67 42.5 114t116.5 58q13 2 27.5 2t25.5 -1l12 -1l129 -213q19 -32 1 -63q-26 -46 -73 -72q-11 -6 -6 -16q81 -151 239 -246q4 -2 9.5 -0.5t7.5 4.5q17 31 56 56q32 21 66 2l224 -122
q3 -25 3 -32q1 -70 -45.5 -124t-117.5 -64zM760 -109h5q8 0 17 2q51 7 85.5 46.5t33.5 90.5v2l-201 109q-7 4 -13 0q-25 -16 -41 -41t-45 -29v0q-22 -3 -40 8q-168 97 -259 266q-12 22 -4.5 46.5t30.5 37.5q35 19 54 53q3 5 -1 12l-116 191h-5q-12 0 -22 -2
q-53 -7 -84.5 -40t-30.5 -81q1 -55 8 -83v-2l1 -6q55 -224 206.5 -372t381.5 -201q15 -4 40 -7z" />
    <glyph glyph-name="export" unicode="&#xe62c;" 
d="M768 44h-666v461h133q36 46 111 102h-295q-21 0 -36 -15t-15 -36v-563q0 -21 15 -36t36 -15h768q21 0 36 15t15 36v192l-102 -85v-56zM684 400v-182l340 266l-340 256v-160q-66 0 -122.5 -14.5t-96 -37t-71.5 -54.5t-52 -63.5t-34.5 -68.5t-21 -64t-10.5 -54.5t-4.5 -37
t-0.5 -14.5v0q37 60 67.5 98t63.5 65t74.5 40.5t89 19t118.5 5.5z" />
    <glyph glyph-name="shoujianxiang" unicode="&#xe634;" 
d="M974 -180h-924q-7 0 -12.5 5.5t-5.5 12.5v577q0 8 5.5 13.5t13 5.5t12.5 -5.5t5 -13.5v-559h888v559q0 8 5 13.5t12.5 5.5t13 -5.5t5.5 -13.5v-577q0 -7 -5.5 -12.5t-12.5 -5.5zM828 330q-8 0 -13 5.5t-5 13.5v395h-596v-395q0 -8 -5 -13.5t-13 -5.5t-13 5.5t-5 13.5v413
q0 7 5 12.5t13 5.5h632q8 0 13 -5.5t5 -12.5v-413q0 -8 -5 -13.5t-13 -5.5zM512 109q-5 0 -10 2l-461 289q-7 4 -8.5 11.5t2.5 13.5t11.5 8t13.5 -2l452 -283l452 283q7 4 14 2t11 -8t2.5 -13.5t-8.5 -11.5l-461 -289q-5 -2 -10 -2zM974 397q-5 0 -10 3l-144 90
q-6 4 -8 11.5t2 14t11.5 8t13.5 -2.5l144 -90q7 -4 8.5 -11.5t-2.5 -13.5q-5 -9 -15 -9zM50 397q-10 0 -15 9q-4 6 -2.5 13.5t8.5 11.5l144 90q6 4 13.5 2.5t11.5 -8t2 -14t-8 -11.5l-144 -90q-5 -3 -10 -3zM706 598h-388q-8 0 -13.5 5t-5.5 13t5.5 13t13.5 5h388
q8 0 13.5 -5t5.5 -13t-5.5 -13t-13.5 -5zM706 500h-388q-8 0 -13.5 5.5t-5.5 13t5.5 13t13.5 5.5h388q8 0 13.5 -5.5t5.5 -13t-5.5 -13t-13.5 -5.5zM706 403h-388q-8 0 -13.5 5.5t-5.5 13t5.5 13t13.5 5.5h388q8 0 13.5 -5.5t5.5 -13t-5.5 -13t-13.5 -5.5zM706 306h-388
q-8 0 -13.5 5.5t-5.5 13t5.5 13t13.5 5.5h388q8 0 13.5 -5.5t5.5 -13t-5.5 -13t-13.5 -5.5z" />
    <glyph glyph-name="iconfontagent" unicode="&#xe620;" 
d="M511 635q-104 0 -177.5 -72t-73.5 -173.5t73.5 -173.5t177.5 -72t177.5 72t73.5 173.5t-73.5 173.5t-177.5 72v0v0zM511 185q-87 0 -148 60t-61 145q0 84 62.5 144.5t146.5 60.5q87 0 148 -60t61 -145t-61 -145t-148 -60v0v0zM222 295v227h-10q39 85 120 137t179.5 52
t179.5 -52t120 -137h-10v-227q48 0 82 33t34 80q0 32 -16 58.5t-43 41.5q-38 106 -133 173.5t-213.5 67.5t-213.5 -67.5t-133 -173.5q-27 -15 -43 -41.5t-16 -57.5q0 -48 34 -81t82 -33v0v0v0v0v0zM762 165q-106 -97 -250.5 -97t-250.5 96q-91 -45 -142.5 -124t-51.5 -183
h892q0 105 -52.5 183.5t-144.5 124.5v0v0v0zM262 116q108 -80 255 -80q67 0 135 24.5t115 63.5q61 -33 104.5 -98.5t44.5 -132.5h-804q7 76 51.5 135t98.5 88v0zM262 116z" />
    <glyph glyph-name="iconfontupgrade" unicode="&#xe635;" 
d="M600 303v0v0zM552 460q-5 6 -13 10q-7 3 -15 3h-1v0q-2 0 -4 -1q-10 -2 -17 -9q-2 -3 -113 -128q-2 -3 -4 -5q-7 -10 -5 -23.5t13 -20.5q24 -16 43 6q20 22 57 64q0 -5 1 -201v-6q1 -13 11.5 -21.5t23.5 -6.5q13 1 20.5 10t7.5 22.5v125.5v58v20q12 -14 28 -32
q22 -25 26 -29l1 -2l5 -5q12 -13 29 -9.5t23 19.5q7 19 -7 35q-22 25 -110 126v0zM525.5 674.5q-102.5 0.5 -189.5 -50.5t-137.5 -138t-51.5 -189q0 -102 51 -189.5t138 -138t189 -50.5t189.5 50.5t138 137.5t50.5 189q1 102 -50 189.5t-138 138t-189.5 51zM526 -25
q-87 0 -161 43t-117.5 117t-43.5 161t43 161t117 117.5t161 43.5t161 -43t117.5 -117t43.5 -161t-43 -161t-117 -117.5t-161 -43.5z" />
    <glyph glyph-name="password" unicode="&#xe687;" 
d="M757 -83h-490q-41 0 -70 29t-29 70v244q0 41 29 70t70 29v82q0 103 71 172.5t174 69.5t174 -69.5t71 -172.5v-82q41 0 70 -29t29 -70v-244q0 -41 -29 -70t-70 -29zM714 441q0 82 -60 140.5t-142 58.5t-142 -58.5t-60 -140.5v-82h404v82zM814 260q0 20 -18 38.5t-39 18.5
h-490q-21 0 -39 -18.5t-18 -38.5v-244q0 -20 18.5 -39.5t38.5 -19.5h490q20 0 38.5 19.5t18.5 39.5v244zM524 14h-24q-6 0 -9.5 4t-3.5 9v204q0 5 3.5 9t9.5 4h24q6 0 9.5 -4t3.5 -9v-204q0 -5 -3.5 -9t-9.5 -4z" />
    <glyph glyph-name="import1" unicode="&#xe641;" 
d="M138 420v210q0 33 23.5 56.5t56.5 23.5h448q12 0 26.5 -6.5t23.5 -15.5l153 -170q20 -23 20 -53v-494q0 -33 -23.5 -56.5t-56.5 -23.5h-591q-33 0 -56.5 23.5t-23.5 56.5v176h76v-159q0 -12 8.5 -21t21.5 -9h548q12 0 21 9t9 21v452h-132q-25 0 -42.5 17.5t-17.5 42.5
v143h-386q-13 0 -21.5 -9t-8.5 -21v-193h-76v0zM135 332h263v71q0 17 9.5 22t23.5 -4l179 -122q14 -9 14 -22.5t-14 -22.5l-179 -121q-14 -10 -23.5 -4.5t-9.5 21.5v80h-263v102z" />
    <glyph glyph-name="chat" unicode="&#xe610;" horiz-adv-x="1344" 
d="M1141 363q-6 2 -12 -1t-8 -9t1 -12t9 -8q94 -30 137.5 -76.5t43.5 -116.5q0 -38 -22.5 -76.5t-46.5 -60.5t-52 -42q-7 -5 -7 -13v-122q-58 21 -100 69q-6 6 -15 4.5t-28 -6.5q-33 -9 -49 -9q-62 0 -108 14t-91 47q-12 9 -21.5 -3.5t2.5 -22.5q49 -36 100 -51.5t118 -15.5
q20 0 57 10q11 3 17 4q27 -28 60.5 -47.5t47.5 -24t23 -6.5h3q6 0 10 4q6 4 6 12v136q62 44 95 95.5t33 104.5q0 81 -49.5 135.5t-153.5 87.5zM1056 380q0 121 -68 220t-188 155.5t-266 56.5q-148 0 -270.5 -57t-193 -156.5t-70.5 -218.5q0 -177 192 -312v-213q0 -8 7 -13
q4 -3 9 -3q3 0 7 2q13 6 35.5 18t76 51t95.5 85q79 -15 128 -15q150 0 265 50t178 141t63 209zM550 12q-48 0 -131 16q-9 1 -15 -5q-74 -84 -180 -142v195q0 8 -7 13q-185 128 -185 291q0 110 66.5 202t181.5 145t254 53q137 0 249.5 -52t176.5 -144t64 -204
q0 -165 -131 -266.5t-343 -101.5zM528 444q-26 0 -45 -19t-19 -45t19 -45t45 -19t45 19t19 45t-19 45t-45 19zM528 348q-13 0 -22.5 9.5t-9.5 22.5t9.5 22.5t22.5 9.5t22.5 -9.5t9.5 -22.5t-9.5 -22.5t-22.5 -9.5zM752 444q-26 0 -45 -19t-19 -45t19 -45t45 -19t45 19t19 45
t-19 45t-45 19zM752 348q-13 0 -22.5 9.5t-9.5 22.5t9.5 22.5t22.5 9.5t22.5 -9.5t9.5 -22.5t-9.5 -22.5t-22.5 -9.5zM304 441q-26 0 -45 -19t-19 -45.5t19 -45t45 -18.5t45 18.5t19 45t-19 45.5t-45 19zM304 345q-13 0 -22.5 9.5t-9.5 22.5t9.5 22.5t22.5 9.5t22.5 -9.5
t9.5 -22.5t-9.5 -22.5t-22.5 -9.5z" />
    <glyph glyph-name="demo25" unicode="&#xe61c;" 
d="M875 659h-721q-36 0 -61.5 -26t-25.5 -62v-542q0 -36 25.5 -62t61.5 -26h721q36 0 62 26t26 62v542q0 36 -26 62t-62 26v0zM873 481l-358 -224l-359 224v90l359 -224l358 224v-90v0zM873 481z" />
    <glyph glyph-name="renzheng" unicode="&#xe7e5;" 
d="M512 748q-82 -63 -170 -95.5t-214 -32.5v-331q0 -59 35 -135t88.5 -143t124.5 -113t136 -46t136 46t124.5 113t88.5 143t35 135v331q-126 0 -214 32.5t-170 95.5zM841 290q0 -50 -30 -115.5t-76 -122.5t-107 -96.5t-116 -39.5t-116 39.5t-107 96.5t-76 122.5t-30 115.5
v285q108 0 183.5 27.5t145.5 81.5q70 -54 145.5 -81.5t183.5 -27.5v-285zM513 619q-58 -45 -121 -68t-153 -23v-237q0 -41 25 -95.5t63.5 -102t89 -80.5t96.5 -33t96.5 33t89 80.5t63.5 102t25 95.5v237q-90 0 -153 23t-121 68v0zM674 384h-5q-19 0 -30 -5q-10 -5 -15 -18
l-103 -262h-17l-1 3l-105 260q-7 15 -15 18q-8 4 -26 4h-5v25h132v-25h-5q-23 0 -31 -4q-6 -4 -3 -15l78 -191l73 191q4 8 -3 12q-8 7 -32 7h-4v25h117v-25v0zM674 384z" />
    <glyph glyph-name="license" unicode="&#xe658;" 
d="M947 -110h-870q-32 0 -54.5 22.5t-22.5 54.5v666q0 32 22.5 54.5t54.5 22.5h870q32 0 54.5 -22.5t22.5 -54.5v-666q0 -32 -22.5 -54.5t-54.5 -22.5zM77 658q-11 0 -18.5 -7.5t-7.5 -17.5v-666q0 -10 7.5 -17.5t18.5 -7.5h870q11 0 18.5 7.5t7.5 17.5v666q0 10 -7.5 17.5
t-18.5 7.5h-870zM486 505h-307q-10 0 -17.5 7.5t-7.5 18t7.5 18t17.5 7.5h307q11 0 18.5 -7.5t7.5 -18t-7.5 -18t-18.5 -7.5zM486 351h-307q-10 0 -17.5 7.5t-7.5 18t7.5 18t17.5 7.5h307q11 0 18.5 -7.5t7.5 -18t-7.5 -18t-18.5 -7.5zM486 249h-307q-10 0 -17.5 7.5
t-7.5 18t7.5 18t17.5 7.5h307q11 0 18.5 -7.5t7.5 -18t-7.5 -18t-18.5 -7.5zM486 146h-307q-10 0 -17.5 7.5t-7.5 18.5t7.5 18.5t17.5 7.5h307q11 0 18.5 -7.5t7.5 -18.5t-7.5 -18.5t-18.5 -7.5zM435 44h-256q-10 0 -17.5 7.5t-7.5 18t7.5 18t17.5 7.5h256q11 0 18.5 -7.5
t7.5 -18t-7.5 -18t-18.5 -7.5zM919 477l-42 30l-16 49h-51l-42 30l-42 -30h-51l-16 -49l-42 -30l16 -49l-16 -49l42 -30l7 -21v-2v-256q0 -18 15.5 -24.5t27.5 5.5l59 59l59 -59q7 -7 18 -7q5 0 10 2q16 6 16 24v256l-1 2l7 21l42 30l-16 49l16 49v0zM678 457l25 19l9 29h31
l25 18l25 -18h31l9 -29l25 -19l-9 -29l9 -29l-25 -19l-9 -29h-31l-25 -18l-25 18h-31l-9 29l-25 19l9 29zM786 165q-7 7 -18 7t-18 -7l-33 -34v169h9l42 -30l42 30h9v-169l-33 34v0z" />
    <glyph glyph-name="password1" unicode="&#xe618;" 
d="M811 385v128q0 7 -1 17.5t-6.5 41.5t-16 59.5t-33 62.5t-52.5 59t-79.5 42t-110.5 17t-110.5 -17t-79.5 -42t-52.5 -59t-33 -62.5t-16 -59.5t-6.5 -42t-1 -17v-128h-128v-597h854v597h-128v0zM555 56v-140h-86v140q-42 26 -42 73q0 36 24.5 61t60.5 25t60.5 -25t24.5 -61
q0 -47 -42 -73zM725 385h-426v128q0 11 1 23.5t6 34.5t13.5 41.5t25 41t38 37t55 26t74.5 10.5t74.5 -10.5t55 -26t38 -37t25 -41t13.5 -41.5t6 -34.5t1 -23.5v-128v0zM725 385z" />
    <glyph glyph-name="vip" unicode="&#xe71a;" 
d="M845 168q-1 1 -89 153l2 2q109 123 86 284q-16 113 -101 194q-82 78 -194 92q-1 0 -24 3h-36l-4 -1q-47 -6 -49 -7q-87 -18 -153.5 -75.5t-96.5 -140t-16 -170.5q17 -105 90 -183q4 -4 1 -9q-45 -78 -168 -290l-3 -6q102 27 194 52q11 -37 52 -194l1 1l1 1v1l1 1v1l1 1
l1 1v1l1 1v1l1 1v1l1 1l1 1v1l1 1v1l1 1v1l1 1l1 1v1l1 1v1l1 1l1 1v1l1 1v1l1 1v1l1 1l1 1v1l1 1v1l1 1v1l1 1l1 1v1l1 1v1l1 1v1l1 1l1 1v1l1 1v1l1 1l1 1v1l1 1v1l1 1v1l1 1l1 1v1l1 1v1l1 1v1l1 1l1 1v1l1 1v1l1 1l1 1v1l1 1v1l1 1v1l1 1l1 1v1l1 1v1l1 1v1l1 1l1 1v1
l1 1v1l1 1l1 1v1l1 1v1l1 1v1l1 1l1 1v1l1 1v1l1 1v1l1 1l1 1v1l1 1v1l1 1v1l1 1l1 1v1l1 1v1l1 1l1 1v1l1 1v1l1 1v1l1 1l1 1v1l1 1v1l1 1v1l1 1l1 1v1l1 1v1l1 1l1 1v1l1 1v1l1 1v1l1 1l1 1v1l1 1v1l1 1v1l1 1l1 1v1l1 1v1l1 1l1 1v1l1 1v1l1 1v1l1 1l1 1v1l1 1v1l1 1v1
l1 1l1 1v1l1 1v1l1 1v1l1 1l1 1v1l1 1v1l1 1l1 1v1l1 1v1l1 1v1l1 1l1 1v1l1 1v1l1 1v1l1 1l1 1v1l1 1v1l1 1v1l1 1l1 1v1l1 1v1l1 1l1 1v1l1 1v1l1 1v1l1 1l1 1v1l1 1v1l1 1v1l1 1l1 1v1l1 1v1l1 1v1l1 1l1 1v1l1 1v1l1 1l1 1v1l1 1v1l1 1v1l1 1l1 1v1l1 1v1l1 1v1l1 1l1 1
v1l1 1v1l1 1v1l1 1l1 1v1l1 1v1l1 1l1 1v1l1 1v1l1 1v1l1 1l1 1v1l1 1v1l1 1v1l1 1l1 1v1l1 1v1l1 1v1l1 1l1 1v1l1 1v1l1 1l1 1v1l1 1v1l1 1v1l1 1l1 1v1l1 1v1l1 1v1l1 1l1 1v1l1 1v1l1 1l1 2l1 -1v-1l1 -1v-1l1 -1v-1l1 -1l1 -1v-1l1 -1v-1l1 -1v-1l1 -1l1 -1v-1l1 -1v-1
l1 -1l1 -1v-1l1 -1v-1l1 -1v-1l1 -1l1 -1v-1l1 -1v-1l1 -1v-1l1 -1l1 -1v-1l1 -1v-1l1 -1l1 -1v-1l1 -1v-1l1 -1v-1l1 -1l1 -1v-1l1 -1v-1l1 -1v-1l1 -1l1 -1v-1l1 -1v-1l1 -1l1 -1v-1l1 -1v-1l1 -1v-1l1 -1l1 -1v-1l1 -1v-1l1 -1v-1l1 -1l1 -1v-1l1 -1v-1l1 -1v-1l1 -1
l1 -1v-1l1 -1v-1l1 -1l1 -1v-1l1 -1v-1l1 -1v-1l1 -1l1 -1v-1l1 -1v-1l1 -1v-1l1 -1l1 -1v-1l1 -1v-1l1 -1l1 -1v-1l1 -1v-1l1 -1v-1l1 -1l1 -1v-1l1 -1v-1l1 -1v-1l1 -1l1 -1v-1l1 -1v-1l1 -1v-1l1 -1l1 -1v-1l1 -1v-1l1 -1l1 -1v-1l1 -1v-1l1 -1v-1l1 -1l1 -1v-1l1 -1v-1
l1 -1v-1l1 -1l1 -1v-1l1 -1v-1l1 -1v-1l1 -1l1 -1v-1l1 -1v-1l1 -1l1 -1v-1l1 -1v-1l1 -1v-1l1 -1l1 -1v-1l1 -1v-1l1 -1v-1l1 -1l1 -1v-1l1 -1v-1l1 -1v-1l1 -1l1 -1v-1l1 -1v-1l1 -1l1 -1v-1l1 -1v-1l1 -1v-1l1 -1l1 -1v-2l1 -1l1 -1v-1l1 -1v-1l1 -1v-1l1 -1l1 -1v-1
l1 -1v-1l1 -1v-1l1 -1l1 -1v-1l1 -1v-1l1 -1l1 -1v-1l1 -1v-1l1 -1v-1l1 -1l1 -1v-1l1 -1v-1l1 -1v-1l1 -1l1 -1v-1l1 -1v-1l1 -1v-1l1 -1l1 -1v-1l1 -1v-1l1 -1l1 -1v-1l1 -1v-1l1 -1v-1l1 -1l1 -1v-1l1 -1v-1l1 -1v-1l1 -1l1 -1v-1l1 -1v-1l1 -1v-1l1 -1l1 -1v-1l1 -1v-1
l1 -1h1v-1l1 -1v-1l1 -1v-1l1 -1l1 -1v-1l1 -1v-1l1 -1v-1l1 -1l1 -1v-1l1 -1v-1l1 -1v-1l1 -1l1 -1v-1l1 -1v-1l1 -1l1 -1v-1l1 -1v-1l1 -1v-1l1 -1l1 -1v-1l1 -1v-1l1 -1v-1l1 -1l1 -1v-2l1 1v1v1l1 1v1v1v1l1 1v1v1v1l1 1v1v1l1 1v1v1v1l1 1v1v1v1l1 1v1v1v1l1 1v1v1l1 1
v1v1v1l1 1v1v1v1l1 1v1v1l1 1v1v1v1l1 1v1v1v1l1 1v1v1v1l1 1v1v1l1 1v1v1v1l1 1v1v1v1l1 1v1v1l1 1v1v1v1l1 1v1v1v1l1 1v1v1v1l1 1v1v1l1 1v1v1v1l1 1v1v1v1l1 1v1v1l1 1v1v1v1l1 1v1v1v1l1 1v1v1v1l1 1v1v1l1 1v1v1v1l1 2v1v1l1 1v1v1v1l1 1v1v1v1l1 1v1v1v1l1 1v1v1l1 1
v1v1v1l1 1v1v1v1l1 1v1v1l1 1v1v1v1l1 1v1v1v1l1 1v1v1v1l1 1v1v1l1 1v1v1v1l1 1v1v1v1l1 1v1v1v1l1 1v1v1l1 1v1v1v1l1 1v1v1v1l1 1v1v1v1l1 1v1v1l1 1v1v1v1l1 1v1v1l1 1q35 -9 101.5 -27t92.5 -25q-77 133 -89 154zM344 -1q-16 59 -31 117q-84 -23 -117 -32l1 1v1l1 1
l1 1v1l1 1v1l1 1l1 1v1l1 1v1l1 1v1l1 1l1 1v1l1 1v1l1 1v1l1 1l1 1v1l1 1v1l1 2l1 1v1l1 1v1l1 1v1l1 1l1 1v1l1 1v1l1 1v1l1 1l1 1v1l1 1v1l1 1l1 1v1l1 1v1l1 1v1l1 1l1 1v1l1 1v1l1 1v1l1 1l1 1v1l1 1v1l1 1l1 1v1l1 1v1l1 1v1l1 1l1 1v1l1 1v1l1 1v1l1 1l1 1v1l1 1v1
l1 1l1 1v1l1 1v1l1 1v1l1 1l1 1v1l1 1v1l1 1v1l1 1l1 1v1l1 1v1l1 1v1l1 1l1 1v1l1 1v1l1 1l1 1v1l1 1l1 1v1l1 1v1l1 1v1l1 1l1 1v1l1 1v1l1 1v1l1 1l1 1v1l1 1v1l1 1l1 1v1l1 1v1l1 1v1l1 1l1 1v1l1 1v1l1 1v1l1 1l1 1v1l1 1v1l1 1v1l1 1l1 1v1l1 1v1l1 1l1 1v1l1 1v1l1 1
v1l1 1l1 1v1l1 1v1l1 1v1l1 1l1 1v1l1 1v1l1 1v1l1 1l1 1v1l1 1v1l1 1l1 1v1l1 1v1l1 1v1l1 1l1 2q72 -52 161 -63q-22 -36 -63.5 -108t-61.5 -108zM507 270q-118 0 -201 83.5t-83 201.5t83 201t201 83t201.5 -83.5t83 -201t-83.5 -201t-201 -83.5zM711 115q-8 -28 -31 -116
l-1 1v1l-1 1v1l-1 1l-1 1v1l-1 1v1l-1 1l-1 1v1l-1 1v1l-1 1v1l-1 1l-1 1v1l-1 1v1l-1 1l-1 1v1l-1 1v1l-1 1v1l-1 1l-1 1v1l-1 1v1l-1 1v1l-1 1l-1 1v1l-1 1v1l-1 1l-1 1v1l-1 1v1l-1 1v1l-1 1l-1 1v1l-1 1v1l-1 1v1l-1 1l-1 1v1l-1 1v1l-1 1l-1 1v1l-1 1v1l-1 1v1l-1 1
l-1 1v1l-1 1v1l-1 1v1l-1 1l-1 1v1l-1 1v1l-1 1l-1 1v1l-1 1v1l-1 1v1l-1 1l-1 1v1l-1 1v1l-1 1v1l-1 1l-1 1v1l-1 1v1l-1 1v1l-1 1l-1 1v1l-1 1v1l-1 1l-1 1v1l-1 1v1l-1 1v1l-1 1l-1 1v1l-1 1v1l-1 1v1l-1 1l-1 1v1l-1 1v1l-1 1l-1 1v1l-1 2l-1 1v1l-1 1v1l-1 1l-1 1v1
l-1 1v1l-1 1v1l-1 1l-1 1v1l-1 1v1l-1 1v1l-1 1l-1 1v1l-1 1v1l-1 1v1l-1 1l-1 1v1l-1 1v1l-1 1l-1 1v1l-1 1v1l-1 1v1l-1 1l-1 1v1l-1 1v1l-1 1v1l-1 1l-1 1v1l-1 1v1l-1 1v1l-1 1l-1 1v1l-1 1v1l-1 1l-1 1v1l-1 1v1l-1 1v1l-1 1l-1 1v1l-1 1v1l-1 1v1l-1 1l-1 1v1l-1 1v1
l-1 1v1l-1 1l-1 1v1l-1 1v1l-1 1l-1 1v1l-1 1v1l-1 1l-1 2q88 12 159 66l1 -1v-1l1 -1l1 -1v-1l1 -2v-1l1 -1v-1l1 -1l1 -1v-1l1 -1v-1l1 -1v-1l1 -1l1 -1v-1l1 -1v-1l1 -1v-1l1 -1l1 -1v-1l1 -1v-1l1 -1l1 -1v-1l1 -1v-1l1 -1v-1l1 -1l1 -1v-1l1 -1v-1l1 -1v-1l1 -1l1 -1
v-1l1 -1v-1l1 -1v-1l1 -1l1 -1v-1l1 -1v-1l1 -1l1 -1v-1l1 -1v-1l1 -1v-1l1 -1l1 -1v-1l1 -1v-1l1 -1v-1l1 -1l1 -1v-1l1 -1v-1l1 -1l1 -1v-1l1 -1v-1l1 -1v0l1 -1l1 -1v-1l1 -2v-1l1 -1l1 -1v-1l1 -1v-1l1 -1v-1l1 -1l1 -1v-1l1 -1v-1l1 -1v-1l1 -1l1 -1v-1l1 -1v-1l1 -1
v-1l1 -1l1 -1v-1l1 -1v-1l1 -1v-1l1 -1l1 -1v-1l1 -1v-1l1 -1v-1l1 -1l1 -1v-1h1v-1l1 -1l1 -1v-1l1 -1v-1l1 -1v-1l1 -1l1 -1v-1l1 -1v-1l1 -1v-1l1 -1l1 -1v-1l1 -1v-1l1 -1v-1l1 -1l1 -1v-1l1 -1v-1l1 -1v-1l1 -1l1 -1v-1l1 -1v-1l1 -1l1 -1v-1l1 -1v-1l1 -1v-1l1 -1
l1 -1v-1l1 -1v-1l1 -1v-1l1 -1l1 -1v-1l1 -1v-1l1 -1v-1l1 -1l1 -1v-1l1 -1v-1l1 -1v-1l1 -1l1 -1v-1l1 -1v-1l1 -1l1 -1v-1l1 -1v-1l1 -1l1 -2q-14 4 -37.5 10t-43 11.5t-36.5 9.5zM550 649h25v28h-3h-87q-3 0 -4 -4q-8 -22 -35.5 -99.5t-40.5 -118.5l-5 17q-8 23 -41 121
q-20 58 -28 79q-1 5 -3 5h-35q1 -4 2 -4q8 -25 16 -46q57 -158 73 -203q2 -6 7 -5h26q6 -1 8 5q11 30 38 104t42 114q3 8 10 7l1 -1v-201h-24v-28h83v28h-25v202zM757 612q-6 48 -54 61q-14 3 -32 4h-70h-4v-258h33v96h35q31 0 52 13q47 28 40 84zM685 547q-8 -2 -27 -2.5
t-28 0.5v103q18 0 19 -1q33 -1 38 -2q34 -7 35 -43q1 -11 -1 -20q-6 -27 -36 -35z" />
    <glyph glyph-name="user-copy" unicode="&#xe600;" 
d="M512 896q-139 0 -257 -68.5t-186.5 -186.5t-68.5 -257t68.5 -257t186.5 -186.5t257 -68.5t257 68.5t186.5 186.5t68.5 257t-68.5 257t-186.5 186.5t-257 68.5zM198 34l2 -1q4 32 12 56q1 4 4.5 9.5t14 15t26 18.5t44 21t65.5 23q19 5 39 24t26 40q9 28 -8 49
q-13 15 -15 51l-1 5l-2 4q-11 20 -20 43l-7 17l-17 -5h-1q-3 5 -8 18q-9 22 -14 32q-8 13 -4 26q1 0 4 -1l25 -3l-2 25q-1 11 -1 19q0 70 6 110t24 65.5t46.5 34t77.5 8.5q42 0 71 -11t45 -28t25 -47.5t11 -58.5t2 -73q0 -9 -1 -20l-1 -26l25 4q2 1 4 1q4 -13 -4 -26
q-6 -9 -14 -30q-6 -14 -8 -18h-1l-18 4l-6 -17q-9 -23 -21 -43l-2 -4v-5q-3 -36 -15 -51q-17 -21 -9 -49q7 -21 27 -40t39 -24q37 -11 65 -23t43.5 -21t26 -18.5t14 -15t4.5 -9.5q8 -23 12 -54q-64 -58 -145.5 -90t-170.5 -32t-170 31.5t-144 89.5v0zM863 71q-3 16 -8 30
q-21 67 -181 114q-9 3 -21.5 14.5t-16.5 22.5q-2 7 1 11q20 24 24 70q2 2 5 6.5t5.5 9.5t4.5 15v0q10 0 18 7t12 14.5t9 21.5q6 13 13 26q13 25 11.5 44.5t-11.5 31.5q-2 2 -4.5 4t-4.5 3.5l-2 1.5v2q0 24 -0.5 36.5t-2 37.5t-5 39.5t-10 36.5t-16 35.5t-24.5 29t-34 24
t-45 14.5t-58 6q-50 0 -84 -10.5t-56 -29t-34 -51.5t-16 -71.5t-4 -96.5v0q-10 -1 -13 -2t-4.5 -4t-2.5 -4q-6 -8 -10.5 -18.5t-4.5 -27t9 -31.5q5 -7 12 -25q6 -16 9.5 -23t11.5 -14t17 -7h1q2 -10 4 -15t5.5 -9t4.5 -7q5 -46 24 -70q3 -4 1 -11q-3 -11 -16 -22.5
t-22 -14.5q-160 -47 -181 -114q-5 -14 -9 -35q-58 65 -90.5 146.5t-32.5 171.5q0 96 37.5 183t100.5 150t150 100.5t183 37.5t183 -37.5t150 -100.5t100.5 -150t37.5 -183q0 -89 -31.5 -169.5t-88.5 -143.5z" />
    <glyph glyph-name="thumbsup" unicode="&#xe661;" 
d="M880 541q-10 3 -24.5 4.5t-41 3t-44.5 2t-61.5 1.5t-66.5 1q7 33 7 92q0 74 -44 132t-94 58q-34 0 -58.5 -24.5t-25.5 -59.5q0 -25 -4.5 -49.5t-16 -54t-35 -56t-56.5 -43.5q-18 -10 -29 -15l1 -1q-26 22 -56 22h-84q-35 0 -59.5 -24.5t-24.5 -59.5v-448
q0 -35 24.5 -59.5t59.5 -24.5h84q24 0 44 13t31 35h1q6 -2 7 -2h1q34 -9 114 -27q85 -19 167 -19h153q71 0 101 54q7 13 12 30q7 23 1 49q30 21 46 72q13 44 0 77q29 28 37 77q6 36 -11 67q23 25 24 61l1 6v14q0 29 -20.5 57t-59.5 39v0zM259 22q0 -12 -8 -20t-20 -8h-84
q-12 0 -20 8t-8 20v448q0 12 8 20t20 8h84q12 0 20 -8t8 -20v-448v0zM903 427q-1 -41 -55 -41h-56q-6 0 -10 -4t-4 -10t4 -10t10 -4h54q28 0 38 -17t7 -35q-10 -60 -61 -60h-66q-6 0 -10 -4t-4 -10t4 -10t10 -4h55q22 0 32 -10t8.5 -23t-4.5 -25q-5 -15 -7.5 -21t-10 -16
t-21 -13.5t-35.5 -3.5h-46q-5 0 -9.5 -4t-4.5 -10t4.5 -10t9.5 -4h44q21 0 27 -14t2 -26q-2 -7 -7 -20q-14 -24 -52 -24h-153q-75 0 -155 18q-110 25 -130 31q-3 0 -6.5 1t-10.5 7.5t-7 15.5v387q0 23 22 30q1 0 3 0.5t3 1.5q46 19 80 49.5t52.5 67t27 73t8.5 75.5
q0 10 8 19t20 9q25 0 53.5 -41t28.5 -93q0 -49 -4 -71.5t-22 -75.5q133 0 198.5 -1.5t77 -3t28.5 -5.5q33 -10 33 -43q0 -2 -1 -18v0z" />
    <glyph glyph-name="discharge_summary" unicode="&#xe757;" horiz-adv-x="1047" 
d="M220 756v-74h-74v-41h74v-74h40v74h74v41h-74v74h-40zM136 84h528v-40h-528v40zM136 204h528v-40h-528v40zM136 323h528v-40h-528v40zM136 443h246v-40h-246v40zM738 -51q0 -15 -11 -26t-26 -11h-624q-15 0 -26 11t-11 26v870q0 15 11 26t26 11h624q15 0 26 -11t11 -26
v-70h40v70q0 32 -22.5 54.5t-54.5 22.5h-624q-32 0 -54.5 -22.5t-22.5 -54.5v-870q0 -32 22.5 -54.5t54.5 -22.5h624q32 0 54.5 22.5t22.5 54.5v414h-40v-414zM1029 769q-27 37 -68 37q-22 0 -40 -13l-301 -219q-25 -18 -27 -51q-3 -31 17 -58q26 -37 68 -37q22 0 39 13
l301 219q25 18 28 51q2 31 -17 58zM995 693l-302 -219q-6 -5 -15 -5q-21 0 -36 20q-11 14 -9 31q1 14 11 22l301 219q7 5 16 5q21 0 35 -20q11 -15 10 -32q-1 -14 -11 -21zM609 412q-3 1 -6 2.5t-11 7t-14 12.5t-11.5 18.5t-5.5 24.5l-3 74l-98 -194l219 28zM526 403l12 22
q5 -10 14 -19z" />
    <glyph glyph-name="orders" unicode="&#xe606;" 
d="M737 540h-346q-6 0 -10.5 -5t-4.5 -12t4.5 -12t10.5 -5h346q6 0 10.5 5t4.5 12t-4.5 12t-10.5 5zM272 523q0 -7 4 -12t10 -5h41q6 0 10 5t4 12t-4 12t-10 5h-41q-6 0 -10 -5t-4 -12zM737 351h-346q-6 0 -10.5 -5t-4.5 -12t4.5 -12t10.5 -5h346q6 0 10.5 5t4.5 12t-4.5 12
t-10.5 5zM327 351h-41q-6 0 -10 -5t-4 -12t4 -12t10 -5h41q6 0 10 5t4 12t-4 12t-10 5zM737 162h-346q-6 0 -10.5 -5t-4.5 -12t4.5 -12t10.5 -5h346q6 0 10.5 5t4.5 12t-4.5 12t-10.5 5zM327 162h-41q-6 0 -10 -5t-4 -12t4 -12t10 -5h41q6 0 10 5t4 12t-4 12t-10 5zM392 660
h241q14 0 24 10t10 25v86q0 14 -10 24t-24 10h-241q-14 0 -24 -10t-10 -24v-86q0 -15 10 -25t24 -10zM392 781h241v-86h-241v86zM839 815h-138v-34h138q21 0 36 -15.5t15 -36.5v-687q0 -22 -15 -37t-36 -15h-653q-21 0 -36.5 15t-15.5 37v687q0 21 15.5 36.5t36.5 15.5h137
v34h-137q-36 0 -61 -25t-25 -61v-687q0 -36 25 -61t61 -25h653q35 0 60.5 25t25.5 61v687q0 36 -25.5 61t-60.5 25z" />
    <glyph glyph-name="end-copy" unicode="&#xe60e;" 
d="M1016 478q-14 101 -65.5 187t-132.5 147t-178.5 86t-197.5 10q-167 -24 -286 -142q-26 -26 -48 -56q-61 -81 -86 -178.5t-10 -197.5q16 -109 75 -202q8 -12 22.5 -15.5t27 5t16 23t-4.5 27.5q-51 78 -65 172q-16 117 27.5 224.5t134 179.5t207.5 88q86 13 169.5 -8.5
t153 -73.5t113.5 -126t56 -160q17 -117 -26.5 -224.5t-134.5 -179.5t-207 -88q-155 -23 -287 58q-13 8 -27.5 4.5t-22.5 -16.5t-4.5 -27.5t16.5 -22.5q75 -45 161.5 -63t173.5 -5q102 14 189.5 67.5t145 130.5t84 175.5t11.5 200.5zM360.5 298.5q5.5 4.5 5.5 15.5t-5.5 15.5
t-19.5 4.5h-85v68h82q11 0 16 4.5t5 15t-5 15.5t-16 5h-82v59h85q11 0 16.5 4.5t5 15.5t-5.5 15.5t-15 4.5h-110q-11 0 -16.5 -4t-5.5 -15v-208q0 -12 6 -16t16 -4h109q14 0 19.5 4.5zM578.5 291.5q4.5 -4.5 11.5 -4.5q13 0 16.5 5t3.5 11v220q0 7 -5.5 12.5t-18 5.5
t-17.5 -6t-5 -12v-145l-112 150q-4 5 -8 9t-12 4q-12 0 -15.5 -5t-3.5 -11v-219q0 -7 5 -13t17.5 -6t18 5.5t5.5 13.5v139l111 -145zM669 294h67q26 0 45.5 9t32.5 25t19.5 39t6.5 51q0 26 -6 48.5t-19 39t-33 26t-48 9.5h-65q-13 0 -16 -4t-3 -12v-215q0 -8 3 -12t16 -4v0z
M696 504h31q20 0 32.5 -5.5t20.5 -16.5t11 -27t3 -36q0 -88 -58 -88h-40v173z" />
    <glyph glyph-name="import2" unicode="&#xe654;" horiz-adv-x="1094" 
d="M956 870h-342v-136h-341h-136v-68v-137h68v137h478v136h341v-819h-819v205h-68v0v-273h136v0h819v68v751v136h-136zM376 201q-10 -10 -10 -24t10 -23.5t23.5 -9.5t23.5 10l183 182q10 10 10 24t-10 23l-183 183q-10 10 -23.5 10t-23.5 -9.5t-10 -23.5t10 -24l127 -126
h-503v-69h500z" />
    <glyph glyph-name="import3" unicode="&#xe65a;" horiz-adv-x="1094" 
d="M956 870h-342v-136h-341h-136v-68v-137h68v137h478v136h341v-819h-819v205h-68v0v-273h136v0h819v68v751v136h-136zM376 201q-10 -10 -10 -24t10 -23.5t23.5 -9.5t23.5 10l183 182q10 10 10 24t-10 23l-183 183q-10 10 -23.5 10t-23.5 -9.5t-10 -23.5t10 -24l127 -126
h-503v-69h500z" />
    <glyph glyph-name="iconfontivr" unicode="&#xe66f;" 
d="M200 223v321h64v-321h-64zM456 223h-88l-96 321h64q76 -255 76 -263q13 65 84 263h65zM816 224h-69l-83 128h-32v-128h-64v320h144q44 0 78 -27.5t34 -68.5q0 -40 -26 -68t-61 -28zM632 480v-64h70q35 0 46.5 6.5t11.5 25t-11.5 25.5t-46.5 7h-70zM512 832
q-122 0 -225 -60t-163 -163t-60 -225t60 -225t163 -163t225 -60t225 60t163 163t60 225t-60 225t-163 163t-225 60zM512 0q-159 0 -271.5 112.5t-112.5 271.5t112.5 271.5t271.5 112.5t271.5 -112.5t112.5 -271.5t-112.5 -271.5t-271.5 -112.5z" />
    <glyph glyph-name="history" unicode="&#xe659;" 
d="M197 67q-80 81 -112 189h101q26 -69 78 -121q51 -51 116.5 -77.5t132.5 -26.5t132.5 26.5t116 77.5t77 116.5t26.5 132.5t-26.5 132.5t-76.5 116.5q-68 68 -158.5 92t-181 0t-158.5 -92q-20 -21 -36 -43l92 -92q-11 -11 -27 -11h-191q-16 0 -27 11t-11 27v191q0 16 11 27
l85 -85q16 22 37 43q86 86 201 116.5t230 0t201 -116.5t116.5 -201.5t0 -231t-116.5 -201.5t-201 -116.5t-230 0t-201 116.5zM448 320v0v0v321h64v-257h192v-64h-256v0z" />
    <glyph glyph-name="fav_active" unicode="&#xe623;" 
d="M890 467q-5 14 -18 23t-27 9l-211 13l-77 205q-6 18 -25.5 25.5t-39 0t-25.5 -25.5l-77 -205l-211 -6q-14 0 -27 -9t-18 -23q-9 -36 13 -58l173 -134l-58 -212q-10 -31 20 -51q28 -19 57 0l173 122l179 -122q7 -6 26 -6t25 6q30 20 20 51l-58 212l173 134q22 22 13 51z
" />
    <glyph glyph-name="history1" unicode="&#xe60a;" horiz-adv-x="1029" 
d="M877 404zM704 416h-192v256q0 13 -9.5 22.5t-22.5 9.5t-22.5 -9.5t-9.5 -22.5v-288q0 -13 9.5 -22.5t22.5 -9.5h224q13 0 22.5 9.5t9.5 22.5t-9.5 22.5t-22.5 9.5v0zM1028 62zM224 576h-96v96q0 13 -9.5 22.5t-22.5 9.5t-22.5 -9.5t-9.5 -22.5v-128q0 -13 9.5 -22.5
t22.5 -9.5h128q13 0 22.5 9.5t9.5 22.5t-9.5 22.5t-22.5 9.5zM139 293q-5 30 -33 30q-14 0 -22.5 -9.5t-8.5 -22.5q0 -3 1.5 -8t1.5 -7q37 -148 157.5 -244t276.5 -96q122 0 225 60t163 163t60 225t-60 225t-163 163t-225 60q-141 0 -255 -80t-163 -208h69q47 101 141 162.5
t208 61.5q159 0 271.5 -112.5t112.5 -271.5t-112.5 -271.5t-271.5 -112.5q-133 0 -236 81t-135 207z" />
    <glyph glyph-name="iconfontfav-copy" unicode="&#xe608;" 
d="M717 13q-19 0 -26 6l-179 122l-179 -122q-29 -19 -58 0q-29 20 -19 51l64 212l-173 134q-22 22 -13 51q5 14 18 23t27 9l211 13l77 205q6 18 25.5 25.5t39 0t25.5 -25.5v0l77 -205l217 -6q15 0 27.5 -9t17.5 -23q10 -32 -19 -52l-173 -140l58 -212q10 -31 -20 -51
q-2 0 -10 -3t-15 -3zM512 211q13 0 19 -6l167 -115l-58 192q0 12 0.5 17.5t3.5 11.5t9 9l160 128h-205q-10 0 -18 8t-8 18l-70 185l-70 -192q0 -5 -8.5 -12t-17.5 -7l-205 -6l160 -128q6 0 9 -4.5t3.5 -8.5t0.5 -13l-58 -192l167 115h19z" />
    <glyph glyph-name="import4" unicode="&#xe89a;" 
d="M67 -32h742v60h-742v-60zM682 308l-43 41l-172 -169q0 47 6 93q22 175 115 289q125 154 369 178l-6 59q-269 -27 -411 -200q-57 -71 -91 -164q-26 -73 -36 -157q-6 -49 -6 -97l-170 167l-43 -42l243 -239z" />
    <glyph glyph-name="agentblacklist" unicode="&#xe8a7;" 
d="M718 400q-44 0 -89 -17q-31 17 -57 26q58 34 92.5 94t34.5 131q0 108 -75 184.5t-180.5 76.5t-180 -76.5t-74.5 -184.5q0 -71 34.5 -131t92.5 -94q-119 -42 -193.5 -147t-74.5 -237q0 -12 8 -20.5t19.5 -8.5t20 8.5t8.5 20.5q0 94 45.5 174.5t124 127t170.5 46.5
q63 0 123 -24q-49 -37 -78 -92.5t-29 -119.5q0 -109 76 -186.5t182.5 -77.5t182 77.5t75.5 186.5t-75.5 186t-182.5 77zM444 431q-7 0 -27 -1q-73 10 -122 68t-49 136q0 86 58 146.5t140 60.5t140 -60.5t58 -146.5q0 -78 -49 -136t-122 -68q-21 1 -27 1zM519 137
q0 85 58.5 145t140.5 60q85 0 144 -64l-320 -235q-23 46 -23 94zM718 -69q-84 0 -144 64l321 235q23 -46 23 -93q0 -85 -58.5 -145.5t-141.5 -60.5z" />
    <glyph glyph-name="shoujianxiangbiaoqianlan" unicode="&#xe62b;" 
d="M832 5h-640q-40 0 -68.5 28t-28.5 68v566q0 40 28.5 68t68.5 28h640q40 0 68.5 -28t28.5 -68v-566q0 -40 -28.5 -68t-68.5 -28zM891 651q0 31 -21.5 52.5t-52.5 21.5h-610q-31 0 -52.5 -21.5t-21.5 -52.5v-534q0 -31 21.5 -52.5t52.5 -21.5h610q31 0 52.5 21.5t21.5 52.5
v534zM844 568l-315 -241v-0.5v-0.5q-4 -7 -11.5 -9t-14.5 2l-323 247q-7 4 -9 11.5t2 14t11.5 9t14.5 -1.5l312 -239l314 241q7 3 14.5 1t11.5 -8.5t2 -14t-9 -11.5z" />
    <glyph glyph-name="pc" unicode="&#xe601;" horiz-adv-x="1332" 
d="M1266 65h-1201q-27 0 -46 19t-19 46v701q0 27 19 46t46 19h1201q27 0 46 -19t19 -46v-701q0 -27 -19 -46t-46 -19zM1251 815h-1171v-674h1171v674v0zM423 -79q24 0 43.5 6.5t30.5 17t19 23t11 25t4.5 23t1.5 16.5l-1 7l110 -1v1h155q2 -1 0 -12t3.5 -29t14 -35
t30.5 -29.5t53 -12.5q17 0 24.5 -12t1 -24.5t-24.5 -12.5h-199h-58h-220q-19 0 -26.5 12.5t1 24.5t26.5 12z" />
    <glyph glyph-name="work" unicode="&#xe607;" horiz-adv-x="1026" 
d="M730 896v0q45 -41 142.5 -140t153.5 -147v-4q-59 -49 -159 -150.5t-135 -134.5q-126 129 -288 289q26 25 89.5 88t109 109t87.5 90zM732 830q-37 -38 -111 -112.5t-111 -112.5q76 -72 222 -221q152 149 224 225q-39 35 -112.5 110t-111.5 111zM2 794q137 3 409 0
q-2 -204 0 -407h-129h-152.5h-129.5v407h2zM53 749q-1 -42 -0.5 -156.5t-1.5 -155.5h312q-1 58 -1 156v156h-309zM2 280q137 3 411 0q-2 -75 -1.5 -204t-0.5 -204h-409v408zM51 232q3 -154 0 -309q157 -2 311 0q-3 153 0 309q-154 3 -311 0zM529 280q206 2 409 0
q-1 -69 -1 -204.5t-1 -203.5h81h-484q-5 59 -5.5 135.5t1 136.5t0.5 136zM573 239v-322h322v320q-107 2 -322 2z" />
    <glyph glyph-name="off" unicode="&#xe611;" 
d="M798 729q-10 8 -23 7t-21.5 -11.5t-7.5 -23.5t11 -22q66 -55 102.5 -132t36.5 -163q0 -159 -112.5 -271.5t-271.5 -112.5t-271.5 112.5t-112.5 271.5q0 86 36.5 163t102.5 132q10 9 11 22t-7.5 23.5t-21.5 11.5t-23 -7q-77 -64 -119.5 -154.5t-42.5 -190.5
q0 -185 131.5 -316.5t316.5 -131.5t316.5 131.5t131.5 316.5q0 100 -42.5 190.5t-119.5 154.5zM512 384q13 0 22.5 9.5t9.5 22.5v384q0 13 -9.5 22.5t-22.5 9.5t-22.5 -9.5t-9.5 -22.5v-384q0 -13 9.5 -22.5t22.5 -9.5z" />
    <glyph glyph-name="summaryline" unicode="&#xe65c;" 
d="M247 567l178 -182l-13 -31q-32 -76 -18 -154t68 -134q-3 3 -9.5 7.5t-7 5.5t0.5 6q14 14 108.5 109.5t169 171t78.5 80.5q-64 43 -134.5 52t-131.5 -19l-33 -15l-180 184zM246 495l1 1h-2l-35 36l-35 -36h-1v-1l-25 -25q-8 -9 -19 -9t-19.5 8.5t-8.5 20t9 19.5l271 276
q8 9 19 9t19.5 -8.5t8.5 -20t-9 -19.5l-61 -62l155 -158q85 37 175.5 20.5t167.5 -76.5q8 -9 8 -20t-8 -20l-177 -180l155 -158q8 -8 8 -19.5t-8 -20t-19.5 -8.5t-19.5 9l-119 121l1 1h-1l-36 35l-35 -35h-1l1 -1l-142 -144q-8 -8 -19 -8t-19 8q-66 67 -82.5 161t21.5 183
l-119 121v0z" />
    <glyph glyph-name="off1" unicode="&#xe7e2;" 
d="M459 819h106v-538h-106v538zM861 642q-41 55 -95 94l-29 20l-65 -91l28 -20q41 -29 71 -70q64 -86 64 -192q0 -133 -94.5 -227.5t-228 -94.5t-228 94.5t-94.5 227.5q0 107 63 192q30 41 71 70l28 20l-65 91l-28 -20q-55 -39 -96 -94q-86 -115 -86 -259q0 -88 35 -169
q33 -78 93 -138t138 -93q80 -34 169 -34t169 34q78 33 138 93t93 138q35 81 35 169q0 144 -86 259z" />
    <glyph glyph-name="export1" unicode="&#xe605;" 
d="M811 -34h-598q-49 0 -84 35t-35 84v598q0 49 35 84t84 35h197v-55h-197q-26 0 -45 -19t-19 -45v-598q0 -26 19 -45t45 -19h598q26 0 45 19t19 45v195h55v-195q0 -49 -35 -84t-84 -35zM563 293q-8 -8 -19.5 -8t-19.5 8l-91 91q-8 8 -8 19.5t8 19.5l257 257q8 8 19.5 8
t20.5 -8l90 -91q8 -8 8 -19.5t-8 -19.5zM930 471q0 -23 -11.5 -27.5t-27.5 11.5l-308 308q-16 16 -11.5 27.5t27.5 11.5h276q23 0 39 -16t16 -39v-276z" />
    <glyph glyph-name="off2" unicode="&#xe621;" 
d="M512 -61q-84 0 -161 32q-74 32 -131 89t-88 131q-33 76 -33 160q0 109 54 203q51 91 140 147q14 9 30.5 5t25.5 -18t5.5 -30.5t-18.5 -25.5q-71 -45 -112 -118q-43 -75 -43 -163q0 -137 97 -233.5t234 -96.5t234 96.5t97 233.5q0 89 -44 165q-42 74 -115 118
q-15 9 -18.5 25.5t5 31t25 18.5t31.5 -5q90 -56 143 -148q55 -95 55 -205q0 -83 -33 -160q-31 -74 -88 -131t-131 -89q-77 -32 -161 -32zM512 357q-17 0 -29 12t-12 29v390q0 17 12 29t29 12t29 -12t12 -29v-390q0 -17 -12 -29t-29 -12z" />
    <glyph glyph-name="history2" unicode="&#xe690;" horiz-adv-x="1030" 
d="M731 421h-219v292q0 15 -10.5 26t-26 11t-26 -11t-10.5 -26v-329q0 -15 10.5 -25.5t25.5 -10.5h256q16 0 26.5 10.5t10.5 25.5t-11 26t-26 11v0zM183 603h-110v110q0 15 -10.5 26t-26 11t-26 -11t-10.5 -26v-146q0 -15 10.5 -26t26.5 -11h146q15 0 25.5 11t10.5 26
t-10.5 25.5t-25.5 10.5zM86 279q-6 35 -38 35q-15 0 -25 -10.5t-10 -25.5q0 -4 1.5 -9.5t1.5 -8.5q42 -169 180 -278.5t316 -109.5q104 0 199 40.5t163.5 109t109 163.5t40.5 199t-40.5 199t-109 163.5t-163.5 109t-199 40.5q-161 0 -291.5 -91.5t-186.5 -237.5h79
q53 115 160.5 185.5t238.5 70.5q89 0 170.5 -35t140 -93.5t93.5 -140t35 -170.5t-35 -170.5t-93.5 -140t-140 -93.5t-170.5 -35q-152 0 -269.5 93t-154.5 236z" />
    <glyph glyph-name="90" unicode="&#xe60d;" 
d="M924 29q-32 -3 -57 2q-40 8 -73 33q-2 2 -7 6.5t-8 6.5q-4 4 -8 3q-45 -12 -94 -3q-58 9 -102 45q-34 28 -50 65q-26 55 -11 111q17 66 78 107q63 42 143 36q74 -6 128 -54q52 -46 60 -112q0 -1 1 -5v-28l-2 -3q-5 -46 -34 -84q-4 -6 -8 -20q-5 -18 0 -39q9 -38 44 -55
v-12zM473 167h-45q-7 0 -10 1q-12 3 -24 -8q-36 -35 -88 -57q-50 -21 -119 -27q-2 0 -47 -3v17t6 6l44 31q34 30 40 69q1 6 0 33q0 3 -4 6q-61 42 -95 98q-52 88 -32 182q12 58 49 107q37 48 94 83q50 31 113 47q39 9 84 12q47 2 94 -5q45 -7 89 -24q55 -22 98 -56
q63 -50 92 -118q17 -40 19 -82v-5q-34 11 -35 11q-113 32 -215 -22q-50 -27 -83 -72q-47 -64 -44 -142q1 -40 16 -76q1 0 3 -6v0z" />
    <glyph glyph-name="node_end" unicode="&#xe61a;" 
d="M513 803q-114 0 -211 -56.5t-153 -153t-56 -210.5t56 -211t153 -153t211 -56t210.5 56t153 153t56.5 211t-56.5 210.5t-153 153t-210.5 56.5zM513 -13q-108 0 -199 53t-144 144t-53 198.5t53 199t144 144.5t199 53t199 -53t144 -144.5t53 -199t-53 -198.5t-144 -144
t-199 -53zM337 269h-122v228h117v-26h-88v-73h82v-26h-82v-77h93v-26zM567 269h-35l-115 177q-5 8 -8 15v0q1 -8 1 -32v-160h-29v228h37l111 -174q8 -13 9 -16h1q-1 10 -1 33v157h29v-228zM626 269v228h65q51 0 85.5 -30.5t34.5 -80.5q0 -53 -34.5 -85t-88.5 -32h-62z
M655 471v-176h33q43 0 67.5 23.5t24.5 66.5t-25 64.5t-66 21.5h-34z" />
    <glyph glyph-name="shoujianxiangweixuanzhong" unicode="&#xe602;" 
d="M413 159zM134 384zM624 167zM884 308zM599 613h-293q-11 0 -19.5 8.5t-8.5 20t8 20t20 8.5h293q12 0 20 -8.5t8 -20t-8 -20t-20 -8.5zM716 441h-410q-11 0 -19.5 8.5t-8.5 20t8 20t20 8.5h410q12 0 20 -8.5t8 -20t-8 -20t-20 -8.5zM90 -71q-15 0 -23 12q-7 9 -5.5 20.5
t11.5 18.5l333 246q45 34 108 34t109 -34l333 -246q9 -7 11 -18.5t-5 -21t-19 -11t-21 5.5l-333 245q-31 23 -75 23t-74 -23l-333 -245q-8 -6 -17 -6zM413 160zM134 385zM624 168zM884 309zM888 -128h-752q-56 0 -95.5 38.5t-39.5 93.5v309q0 54 39.5 93t95.5 39v-57
q-32 0 -55 -22t-23 -53v-309q0 -31 23 -53t55 -22h752q32 0 55.5 22t23.5 53v309q0 31 -23.5 53t-55.5 22v57q56 0 95.5 -39t39.5 -93v-309q0 -55 -39.5 -93.5t-95.5 -38.5zM365 140q-8 0 -15 4l-221 141q-10 6 -12.5 17.5t4 21.5t18 12.5t21.5 -3.5l220 -141
q10 -6 12.5 -17.5t-3.5 -21.5q-9 -13 -24 -13zM664 140q-16 0 -24 13q-7 10 -4 21.5t12 17.5l221 141q10 6 21.5 3.5t17.5 -12.5t3.5 -21.5t-12.5 -17.5l-220 -141q-7 -4 -15 -4zM884 280q-12 0 -20 8.5t-8 20.5l-1 445q0 35 -25 60t-60 25h-117q-12 0 -20.5 8.5t-8.5 20
t8.5 20t20.5 8.5h117q59 0 100.5 -41.5t41.5 -100.5v-445q0 -12 -8 -20.5t-20 -8.5v0zM485 839h-62q-11 0 -19.5 8.5t-8.5 20t8.5 20t19.5 8.5h62q12 0 20 -8.5t8 -20t-8 -20t-20 -8.5zM144.5 667q-11.5 0 -20 8.5t-8.5 20.5v58q0 59 42 100.5t100 41.5h56q12 0 20.5 -8.5
t8.5 -20t-8.5 -20t-20.5 -8.5h-56q-35 0 -60 -25t-25 -60v-58q0 -12 -8.5 -20.5t-20 -8.5zM144.5 280q-11.5 0 -20 8.5t-8.5 20.5v219q0 11 8.5 19.5t20 8.5t20 -8.5t8.5 -19.5v-219q0 -12 -8.5 -20.5t-20 -8.5z" />
    <glyph glyph-name="tag" unicode="&#xe63f;" 
d="M979 480v304q0 30 -21 51t-50 21q-2 0 -78 -0.5t-151 -0.5h-75h-6q-5 1 -7 1q-50 0 -70 -20l-463 -464q-18 -17 -18 -41.5t18 -41.5l354 -355q17 -17 41.5 -17t42.5 17l463 464q10 9 14.5 23t5 24t0.5 29v6zM938 474q0 -39 -7 -47l-464 -464q-6 -5 -13.5 -5t-12.5 5
l-354 355q-6 5 -6 12.5t6 12.5l463 464q8 8 41 8h6.5h6.5h304q12 0 21 -9t9 -22v-18v-43.5v-59v-64.5v-58.5v-43v-17.5v-6zM860 676q-8 -3 -16 0t-11 11t-9 14q-12 12 -28.5 12t-28.5 -12t-12 -29t12 -29t28.5 -12t28.5 12q6 6 14.5 6t14.5 -6t6 -14.5t-6 -14.5
q-24 -24 -57.5 -24t-57.5 24t-24 58t24 57.5t57.5 23.5t57.5 -23q12 -12 18 -27q3 -8 0 -16t-11 -11z" />
    <glyph glyph-name="customer" unicode="&#xe650;" 
d="M920 290q13 0 22.5 -8.5t9.5 -21.5v-268q0 -12 -9.5 -21t-22.5 -9h-386q-13 0 -22 9t-9 21v268q0 13 9 21.5t22 8.5h386zM920 354h-386q-40 0 -68.5 -27.5t-28.5 -66.5v-353q0 -15 4.5 -21t14 -4.5t20.5 5t27.5 8t30.5 4.5h386q41 0 69.5 27.5t28.5 65.5v268
q0 39 -28.5 66.5t-69.5 27.5v0v0v0v0zM839 153h-215q-14 0 -23.5 9.5t-9.5 22.5t9.5 22.5t23.5 9.5h215q14 0 23.5 -9.5t9.5 -22.5t-9.5 -22.5t-23.5 -9.5v0v0v0zM764 20h-140q-14 0 -23.5 9t-9.5 22.5t9.5 22.5t23.5 9h140q13 0 23 -9t10 -22.5t-10 -22.5t-23 -9v0v0v0z
M350 -122q-4 0 -8 1l-10.5 -0.5t-27.5 -0.5t-37.5 1.5t-45 6.5t-46.5 14q-87 36 -128 70t-41 73q0 33 16.5 90.5t41.5 74.5q40 25 107 45q57 18 124 30v53q-63 63 -91 139q-29 76 -29 169q0 119 64 182.5t180 63.5q123 0 192 -80q59 -69 59 -171q0 -39 -7.5 -76t-17 -61.5
t-22 -46.5t-18 -30t-9.5 -12q-7 -9 -19.5 -10t-22 6.5t-10.5 19t7 20.5q17 23 30 51q30 66 30 139q0 20 -2.5 39.5t-13.5 49.5t-30 51.5t-57 37.5t-89 16q-95 0 -140 -53q-44 -52 -44 -136q0 -94 25 -156.5t85 -119.5q9 -8 9 -20v-88q0 -11 -7 -19t-18 -10q-1 0 -29 -7.5
t-72 -19.5t-75 -22q-88 -27 -88 -139q0 -35 133 -90q12 -5 25 -9t25 -6t24 -3.5t22.5 -2t20 -0.5t17.5 0.5t13.5 1t9 0.5h3.5q11 -3 17.5 -13t2.5 -22q-2 -9 -10 -15t-18 -6v0v0v0v0zM350 -122z" />
    <glyph glyph-name="daochu" unicode="&#xe672;" 
d="M502 479l102 -102l192 192l100 -99v296l-299 2l97 -97zM894 348l-73 75l1 -345l-614 -1v613l344 1l-77 77h-268q-32 0 -54.5 -22.5t-22.5 -54.5v-613q0 -32 22.5 -54.5t54.5 -22.5h613q32 0 54.5 22.5t22.5 54.5z" />
    <glyph glyph-name="userrole" unicode="&#xe90b;" 
d="M678 608q0 92 -66 158t-158.5 66t-158.5 -66t-66 -158q0 -67 36.5 -122t96.5 -82q-58 -21 -105 -53.5t-76 -66t-50.5 -72.5t-31 -69t-15.5 -60.5t-6.5 -41.5t-0.5 -17h44q0 9 1 21.5t7.5 44t18.5 61.5t37 67.5t59 68t89.5 57.5t123.5 40q91 1 156 66.5t65 157.5z
M274 607.5q0 74.5 52.5 127.5t127 53t127 -53t52.5 -127.5t-52.5 -127t-127 -52.5t-127 52.5t-52.5 127zM766 494q-75 0 -128 -53t-53 -128q0 -26 8 -51l-202 -200v-126h135v52l59 -1l1 61h41l92 90q23 -6 47 -6q75 0 128 53t53 128t-53 128t-128 53zM850 358
q0 -16 -11 -27.5t-27 -11.5t-27.5 11.5t-11.5 27.5t11.5 27.5t27.5 11.5t27 -11.5t11 -27.5zM766 177q-23 0 -45 7l-93 33l54 -53l-73 -72h-66l-1 -60l-60 2v-54h-47v63l209 207l-5 14q-9 24 -9 49q0 57 40 97t96 40q25 0 48 -9q-35 2 -60.5 -23t-25.5 -60q0 -34 24.5 -58.5
t59 -24.5t59 24.5t24.5 58.5v2q8 -23 8 -47q0 -56 -40 -96t-97 -40z" />
    <glyph glyph-name="userrole1" unicode="&#xe7d0;" 
d="M433 187q0 84 46 162q18 33 53.5 71t46.5 55q37 54 44 125.5t-16 130.5q-24 60 -76 93.5t-117 32.5q-65 -2 -115 -38.5t-71 -97.5q-25 -65 -11.5 -139.5t65.5 -122.5q25 -24 38.5 -54t2.5 -58q-3 -9 -7.5 -16t-12 -13.5t-12.5 -11t-16 -10t-15 -8t-16.5 -8t-15.5 -6.5
q-35 -16 -60 -29.5t-54 -34.5t-47 -48t-24 -60q-12 -57 22.5 -104t94.5 -47h334q12 0 17.5 11t-1.5 20q-77 89 -77 205zM748.5 423q-97.5 0 -167 -69t-69.5 -166.5t69.5 -167t167 -69.5t167 69.5t69.5 167t-69.5 166.5t-167 69zM790 165q-8 0 -20 4l-91 -90q-7 -8 -19 -8
t-20 8q-7 7 -7 18.5t7 20.5l91 91q-4 12 -4 19q-3 31 18.5 55t52.5 24q7 0 19 -4q3 0 3.5 -2t-1.5 -4l-39 -41q-3 -1 -3 -4.5t3 -5.5l27 -27q6 -6 12 0l40 39q1 2 3 1.5t2 -3.5q4 -12 4 -20q0 -31 -23 -52.5t-55 -18.5z" />
    <glyph glyph-name="show_summary_img" unicode="&#xe7c8;" 
d="M934 714q-5 27 -28 43l-91 63q-15 9 -34 9q-27 0 -41 -19q-1 0 -22 -30.5t-53 -77t-66.5 -96t-66 -96t-47.5 -69.5q-18 -28 -21 -62l-7 -115q-2 -20 14 -38q15 -17 36 -20h-270q-11 0 -18.5 -7.5t-7.5 -18t7.5 -18t18.5 -7.5h508q11 0 18.5 7.5t7.5 18t-7.5 18t-18.5 7.5
h-225q8 1 15 5h1v0q0 1 16.5 11t43.5 26t43 26q28 17 48 44l204 298l32 47q16 25 11 51zM513 258q-2 0 -5 3l8 114l59 -19l32 -42q-71 -43 -94 -56zM645 348l-30 40q0 1 -1 1q-9 11 -24 16l-55 17q42 64 190 277l110 -74zM881 692l-17 -25l-109 74q4 7 10.5 16t9.5 14t5 7h1
q4 0 5 -1l91 -62q6 -4 7 -10q1 -8 -3 -13zM889.5 527q-13.5 0 -23.5 -10t-10 -23v-486v-4h-689v0q-1 2 -1 4v698q0 8 9 8h429q14 0 23.5 9.5t9.5 23.5t-9.5 23.5t-23.5 9.5h-429q-31 0 -53 -22t-22 -52v-698q0 -32 19.5 -51.5t49.5 -19.5h684q31 0 50.5 19.5t19.5 51.5v486
q0 13 -10 23t-23.5 10z" />
    <glyph glyph-name="priority" unicode="&#xe82d;" 
d="M177 827q0 12 -8.5 21t-20.5 9h-59q-12 0 -21 -9t-9 -21v-886q0 -12 9 -21t21 -9h59q12 0 20.5 9t8.5 21v886zM935 744q-64 -33 -115 -42t-87.5 1.5t-69 29.5t-68.5 39.5t-77 34t-103.5 9.5t-138.5 -30q-20 -7 -20 -28v-459q0 -10 8.5 -16t17.5 -1q76 25 138 27.5
t102.5 -12t76.5 -35.5t69 -40t70.5 -28t90.5 2.5t120 49.5q16 10 16 26v457q0 10 -9.5 15.5t-20.5 -0.5z" />
    <glyph glyph-name="m-quick-quotation" unicode="&#xe63d;" 
d="M437 -32v346h-213l358 486v-346h214z" />
    <glyph glyph-name="Import" unicode="&#xe65b;" 
d="M885 285v-236q0 -16 -10.5 -27t-26.5 -11h-672q-15 0 -26 11t-11 26v672q0 16 11 26.5t26 10.5h295q15 0 26 11t11 26.5t-11 26.5t-26 11h-295q-46 0 -79 -32.5t-33 -79.5v-672q0 -46 33 -79t79 -33h672q47 0 79.5 33t32.5 80v236q0 15 -11 26t-26.5 11t-26.5 -11
t-11 -26zM438 362q2 134 59 241t158.5 168t228.5 61q16 0 26.5 -11t10.5 -26.5t-10.5 -26.5t-26.5 -11q-157 0 -260 -106.5t-111 -274.5l34 35q11 11 26.5 10.5t26.5 -10.5q11 -11 11 -26.5t-11 -26.5l-101 -101q-2 -2 -4 -5q-11 -11 -27 -11t-26 11l-5 5l-101 101
q-11 11 -10.5 26.5t11.5 26.5q10 10 25.5 10.5t26.5 -10.5z" />
    <glyph glyph-name="transfer" unicode="&#xe7be;" 
d="M811 627l-13 13l-179 68q-20 7 -26 -12.5t13 -25.5l132 -51q-118 -30 -229.5 -110.5t-191 -192t-104.5 -226.5q-6 -18 17 -26h5q12 0 21 17q25 109 100.5 214t180.5 180.5t214 100.5l-47 -128q-6 -19 13 -26h8q15 0 22 13l64 175v17z" />
    <glyph glyph-name="history3" unicode="&#xe7eb;" 
d="M643 298v320h-51v-314h-237v-51h243q19 0 32 13t13 32zM979 554q-35 84 -100 149t-149 100q-88 37 -183 37q-80 0 -159.5 -30t-144.5 -86l-104 104q-13 13 -32 17t-36.5 -3.5t-28 -23t-10.5 -33.5l-14 -233v-1q0 -26 18 -44.5t44 -18.5l250 -4h1q19 0 34.5 10.5t23 28
t3.5 36.5t-17 32l-96 96q58 49 128 75.5t140 26.5q114 0 210 -56t152 -152t56 -209.5t-56 -210t-152 -152.5t-210 -56q-93 0 -177.5 39.5t-143.5 111.5l-40 -33q67 -80 161.5 -124.5t199.5 -44.5q95 0 183 37q84 36 149 101t100 149q37 87 37 182t-37 183zM339 554v0
q5 -5 3 -11h-1q-3 -8 -10 -8l-250 4h-1q-4 0 -7.5 3.5t-3.5 7.5l14 232v2q0 7 8 10v0q6 3 11 -2l125 -125v0z" />
    <glyph glyph-name="import5" unicode="&#xe60c;" horiz-adv-x="1025" 
d="M979.5 298q-17.5 0 -30 -12.5t-12.5 -30.5v-298h-852v852h298v0q18 0 30.5 12.5t12.5 30t-12.5 30t-30.5 12.5v0h-298v0q-35 0 -60 -25t-25 -60v0v-852v0q0 -35 25 -60t60 -25v0h852v0q35 0 60 25t25 60v0v298q0 18 -12.5 30.5t-30 12.5zM353 226v0h1q11 -12 28 -12h1
h341q18 0 30.5 12.5t12.5 30t-12.5 30t-30.5 12.5h-240l527 527q13 12 13 30q0 16 -12 28t-29 12q-18 0 -30 -14l-527 -527v242v0q0 18 -12.5 30.5t-30 12.5t-30 -12.5t-12.5 -30.5v0v-341v0q0 -17 12 -30v0zM1010 882z" />
    <glyph glyph-name="export2" unicode="&#xe612;" 
d="M934 307q-15 0 -26.5 -11t-11.5 -27v-269h-768v767h269q16 0 27 11.5t11 27.5t-11 27t-27 11h-269q-32 0 -54.5 -22.5t-22.5 -54.5v-767q0 -31 22.5 -53.5t54.5 -22.5h768q32 0 54.5 22.5t22.5 53.5v269v0q0 16 -11.5 27t-27.5 11v0zM962 833q-1 0 -1 0.5v0.5
q-11 10 -26 10h-308q-16 0 -27 -11t-11 -27t11 -27.5t27 -11.5h216l-474 -473q-11 -11 -11 -26t11 -26t26 -11t25 11l476 475v-218q0 -16 11.5 -27t27 -11t27 11t11.5 27v307v0q0 16 -11 27z" />
    <glyph glyph-name="Summary_today" unicode="&#xe60f;" 
d="M280.5 575q-11.5 0 -20 -8.5t-8.5 -20t8.5 -19.5t20 -8t19.5 8t8 19.5t-8 20t-19.5 8.5zM370 355h80q12 0 20 8t8 19.5t-8 20t-20 8.5h-80q-12 0 -20 -8.5t-8 -19.5q0 -12 8 -20t20 -8zM280.5 411q-11.5 0 -20 -8.5t-8.5 -20t8.5 -19.5t20 -8t19.5 8t8 19.5t-8 20
t-19.5 8.5zM370 519h312q11 0 19.5 8t8.5 19.5t-8.5 20t-19.5 8.5h-312q-12 0 -20 -8.5t-8 -20t8 -19.5t20 -8zM370 177h27q11 0 19 8.5t8 20t-8 19.5t-19 8h-27q-12 0 -20 -8t-8 -19.5t8 -20t20 -8.5zM735 771h18q37 0 58 -21.5t21 -58.5v-248q0 -11 8 -19.5t19.5 -8.5
t20 8.5t8.5 19.5v248q0 61 -37.5 99t-97.5 38h-18q-12 0 -20 -8.5t-8 -20t8 -20t20 -8.5zM484 -3h-244q-40 0 -62.5 22t-22.5 62v610q0 81 80 81h31q12 0 20 8t8 19.5t-8 20t-20 8.5h-31q-63 0 -99 -37t-36 -100v-610q0 -64 38 -102t102 -38h244q12 0 20 8t8 19.5t-8 20
t-20 8.5zM280.5 233q-11.5 0 -20 -8t-8.5 -19.5t8.5 -20t20 -8.5t19.5 8.5t8 20t-8 19.5t-19.5 8zM377 771h250q12 0 20 8.5t8 20t-8 19.5t-20 8h-250q-11 0 -19 -8t-8 -19.5t8 -20t19 -8.5zM693.5 422q-95.5 0 -163 -67.5t-67.5 -163t67.5 -163t163 -67.5t163 67.5
t67.5 163t-67.5 163t-163 67.5zM693.5 17q-72.5 0 -123.5 51t-51 123.5t51 123.5t123.5 51t123.5 -51t51 -123.5t-51 -123.5t-123.5 -51zM778 177l-59 20v88q0 12 -8 20t-19.5 8t-20 -8t-8.5 -20v-100q0 -3 1 -4q1 -22 21 -32l76 -25q4 -2 9 -2q20 0 26 19q4 12 -1.5 22.5
t-16.5 13.5z" />
  </font>
</defs>
</svg>
